<?xml version="1.0" encoding="utf-8"?>
<!-- Generator: Adobe Illustrator 16.0.3, SVG Export Plug-In . SVG Version: 6.00 Build 0)  -->
<!DOCTYPE svg PUBLIC "-//W3C//DTD SVG 1.1//EN" "http://www.w3.org/Graphics/SVG/1.1/DTD/svg11.dtd">
<svg version="1.1" id="Steine_1_" xmlns="http://www.w3.org/2000/svg" xmlns:xlink="http://www.w3.org/1999/xlink" x="0px" y="0px"
	 width="1655.005px" height="860.997px" viewBox="165.986 107.994 1655.005 860.997"
	 enable-background="new 165.986 107.994 1655.005 860.997" xml:space="preserve">
<g id="Abgerundetes_Rechteck_9">
	<g>
		<path fill="#FFFFFF" d="M827.991,571.606H298.392c-73.124,0-132.406,59.308-132.406,132.466v132.453
			c0,73.162,59.282,132.467,132.406,132.467h529.599c73.124,0,132.398-59.305,132.398-132.467V704.072
			C960.39,630.913,901.115,571.606,827.991,571.606z"/>
	</g>
</g>
<g id="Abgerundetes_Rechteck_9_Kopie">
	<g>
		<path fill="#FFFFFF" d="M1688.594,571.606h-529.607c-73.116,0-132.397,59.308-132.397,132.466v132.453
			c0,73.162,59.281,132.467,132.397,132.467h529.607c73.114,0,132.396-59.305,132.396-132.467V704.072
			C1820.991,630.913,1761.709,571.606,1688.594,571.606z"/>
	</g>
</g>
<g id="Abgerundetes_Rechteck_9_Kopie_2">
	<g>
		<path fill="#FFFFFF" d="M1158.986,107.994h-529.6c-73.124,0-132.398,59.309-132.398,132.453v132.466
			c0,73.162,59.274,132.467,132.398,132.467h529.6c73.123,0,132.405-59.305,132.405-132.467V240.448
			C1291.392,167.303,1232.109,107.994,1158.986,107.994z"/>
	</g>
</g>
</svg>
