<?xml version="1.0" encoding="utf-8"?>
<!-- Generator: Adobe Illustrator 16.0.3, SVG Export Plug-In . SVG Version: 6.00 Build 0)  -->
<!DOCTYPE svg PUBLIC "-//W3C//DTD SVG 1.1//EN" "http://www.w3.org/Graphics/SVG/1.1/DTD/svg11.dtd">
<svg version="1.1" xmlns="http://www.w3.org/2000/svg" xmlns:xlink="http://www.w3.org/1999/xlink" x="0px" y="0px"
	 width="1846.889px" height="499.577px" viewBox="0 0 1846.889 499.577" enable-background="new 0 0 1846.889 499.577"
	 xml:space="preserve">
<g id="Logo">
	<g id="Gebäude2">
		<polygon fill="#004B7A" points="142.909,225.773 233.134,256.426 233.134,226.144 142.909,195.494 		"/>
		<polygon fill="#004B7A" points="142.909,266.969 233.134,297.622 233.134,267.339 142.909,236.688 		"/>
		<polygon fill="#004B7A" points="142.909,349.359 233.134,380.011 233.134,349.73 142.909,319.077 		"/>
		<polygon fill="#004B7A" points="142.909,431.748 233.134,462.4 233.134,432.119 142.909,401.468 		"/>
		<polygon fill="#004B7A" points="142.909,308.164 233.134,338.815 233.134,308.531 142.909,277.884 		"/>
		<polygon fill="#004B7A" points="142.909,390.553 233.134,421.205 233.134,390.922 142.909,360.271 		"/>
		<polygon fill="#004B7A" points="142.909,431.511 152.274,434.636 152.274,198.653 142.909,195.526 		"/>
		<polygon fill="#004B7A" points="84.441,257.603 132.065,228.361 132.065,239.64 84.441,268.881 		"/>
		<polygon fill="#004B7A" points="84.441,298.899 132.065,269.659 132.065,280.938 84.441,310.176 		"/>
		<polygon fill="#004B7A" points="84.441,340.197 132.065,310.958 132.065,322.234 84.441,351.474 		"/>
		<polygon fill="#004B7A" points="84.441,381.496 132.065,352.254 132.065,363.531 84.441,392.773 		"/>
		<polygon fill="#004B7A" points="84.441,422.794 132.065,393.555 132.065,404.833 84.441,434.07 		"/>
		<polygon fill="#004B7A" points="131.647,201.277 141.014,195.494 141.014,431.476 131.647,437.26 		"/>
	</g>
	<g id="Gebäude1">
		<polygon fill="#1379BE" points="325.307,121.054 451.261,163.842 451.261,121.57 325.307,78.782 		"/>
		<polygon fill="#1379BE" points="325.307,178.562 451.261,221.351 451.261,179.078 325.307,136.291 		"/>
		<polygon fill="#1379BE" points="325.307,293.575 451.261,336.367 451.261,294.093 325.307,251.305 		"/>
		<polygon fill="#1379BE" points="325.307,236.068 451.261,278.859 451.261,236.584 325.307,193.797 		"/>
		<polygon fill="#1379BE" points="325.307,351.082 451.261,393.87 451.261,351.599 325.307,308.81 		"/>
		<polygon fill="#1379BE" points="325.307,476.529 451.261,446.479 451.261,409.109 325.307,366.319 		"/>
		<polygon fill="#1379BE" points="325.307,408.26 338.38,412.622 338.38,83.19 325.307,78.828 		"/>
		<polygon fill="#1379BE" points="243.688,165.485 310.169,124.667 310.169,140.409 243.688,181.228 		"/>
		<polygon fill="#1379BE" points="243.688,223.137 310.169,182.318 310.169,198.062 243.688,238.879 		"/>
		<polygon fill="#1379BE" points="243.688,280.787 310.169,239.969 310.169,255.713 243.688,296.53 		"/>
		<polygon fill="#1379BE" points="243.688,338.438 310.169,297.622 310.169,313.364 243.688,354.182 		"/>
		<polygon fill="#1379BE" points="243.688,396.091 310.169,355.274 310.169,371.014 243.688,411.832 		"/>
		<polygon fill="#1379BE" points="243.688,451.442 310.169,410.624 310.169,426.368 243.688,467.185 		"/>
		<polygon fill="#1379BE" points="309.586,86.855 322.66,78.782 322.66,469.035 309.586,477.108 		"/>
	</g>
	<g id="Sichel">
		<path fill="#004B7B" d="M241.458,28.95C285.479,12.323,329.784,2.867,372.146,0c-22.035,4.797-44.313,11.354-66.532,19.746
			C137.159,83.374,35.879,228.35,79.396,343.561c43.519,115.209,215.354,157.023,383.807,93.395
			c15.715-5.935,30.844-12.582,45.328-19.843c-29.828,20.697-63.616,38.597-100.598,52.569
			c-173.286,65.451-351.029,19.854-397-101.852C-35.036,246.126,68.172,94.403,241.458,28.95z"/>
	</g>
</g>
<g id="Text">
	<g>
		<path fill="#004B7A" d="M630.34,100.444c5.928-1.248,15.287-2.184,24.802-2.184c13.571,0,22.307,2.34,28.858,7.644
			c5.46,4.056,8.736,10.295,8.736,18.563c0,10.139-6.708,19.031-17.783,23.086v0.312c9.983,2.496,21.683,10.764,21.683,26.362
			c0,9.047-3.588,15.911-8.892,21.059c-7.332,6.708-19.187,9.827-36.346,9.827c-9.359,0-16.535-0.624-21.059-1.248V100.444z
			 M643.912,143.498h12.323c14.351,0,22.774-7.488,22.774-17.627c0-12.323-9.359-17.158-23.086-17.158
			c-6.239,0-9.828,0.468-12.011,0.936V143.498z M643.912,193.882c2.651,0.468,6.551,0.624,11.387,0.624
			c14.039,0,26.986-5.147,26.986-20.435c0-14.351-12.324-20.279-27.143-20.279h-11.23V193.882z"/>
		<path fill="#004B7A" d="M756.223,204.177l-1.092-9.515h-0.468c-4.212,5.927-12.323,11.23-23.086,11.23
			c-15.287,0-23.086-10.763-23.086-21.682c0-18.251,16.223-28.234,45.393-28.078v-1.56c0-6.24-1.716-17.471-17.159-17.471
			c-7.02,0-14.351,2.184-19.654,5.616l-3.12-9.048c6.24-4.056,15.287-6.708,24.802-6.708c23.086,0,28.702,15.755,28.702,30.886
			v28.234c0,6.552,0.312,12.947,1.248,18.095H756.223z M754.195,165.648c-14.975-0.312-31.978,2.339-31.978,17.003
			c0,8.891,5.927,13.103,12.947,13.103c9.827,0,16.067-6.239,18.251-12.635c0.468-1.404,0.78-2.964,0.78-4.368V165.648z"/>
		<path fill="#004B7A" d="M852.779,183.587c0,7.799,0.156,14.663,0.625,20.59h-12.167l-0.78-12.324h-0.312
			c-3.587,6.084-11.543,14.039-24.958,14.039c-11.855,0-26.05-6.551-26.05-33.069v-44.145h13.727v41.805
			c0,14.351,4.368,24.022,16.847,24.022c9.204,0,15.6-6.396,18.095-12.479c0.781-2.028,1.248-4.523,1.248-7.02v-46.328h13.727
			V183.587z"/>
		<path fill="#004B7A" d="M938.728,183.587c0,7.799,0.156,14.663,0.625,20.59h-12.168l-0.78-12.324h-0.312
			c-3.587,6.084-11.543,14.039-24.958,14.039c-11.855,0-26.05-6.551-26.05-33.069v-44.145h13.727v41.805
			c0,14.351,4.368,24.022,16.847,24.022c9.204,0,15.599-6.396,18.096-12.479c0.779-2.028,1.247-4.523,1.247-7.02v-46.328h13.727
			V183.587z"/>
		<path fill="#004B7A" d="M961.502,149.113c0-7.799-0.156-14.195-0.623-20.434h12.167l0.779,12.479h0.312
			c3.744-7.175,12.479-14.195,24.958-14.195c10.451,0,26.675,6.24,26.675,32.134v45.081h-13.728v-43.521
			c0-12.167-4.523-22.307-17.47-22.307c-9.048,0-16.067,6.396-18.407,14.039c-0.624,1.716-0.937,4.056-0.937,6.396v45.393h-13.727
			V149.113z"/>
		<path fill="#004B7A" d="M1063.985,106.996v21.683h19.655v10.451h-19.655v40.713c0,9.359,2.652,14.663,10.296,14.663
			c3.588,0,6.239-0.468,7.956-0.936l0.624,10.295c-2.652,1.092-6.864,1.872-12.167,1.872c-6.396,0-11.545-2.028-14.82-5.771
			c-3.899-4.056-5.303-10.763-5.303-19.655v-41.181h-11.699v-10.451h11.699v-18.095L1063.985,106.996z"/>
		<path fill="#004B7A" d="M1105.79,168.923c0.313,18.563,12.167,26.207,25.895,26.207c9.828,0,15.756-1.716,20.902-3.9l2.34,9.827
			c-4.836,2.184-13.104,4.68-25.114,4.68c-23.242,0-37.125-15.287-37.125-38.061c0-22.775,13.415-40.713,35.409-40.713
			c24.646,0,31.198,21.683,31.198,35.566c0,2.808-0.312,4.991-0.468,6.395H1105.79z M1146.035,159.096
			c0.156-8.735-3.587-22.307-19.03-22.307c-13.883,0-19.967,12.792-21.059,22.307H1146.035z"/>
		<path fill="#004B7A" d="M1176.296,152.232c0-8.891-0.155-16.534-0.623-23.554h12.012l0.467,14.819h0.624
			c3.432-10.14,11.699-16.535,20.903-16.535c1.56,0,2.651,0.156,3.899,0.468v12.947c-1.404-0.312-2.808-0.468-4.68-0.468
			c-9.671,0-16.535,7.332-18.407,17.627c-0.313,1.872-0.624,4.056-0.624,6.395v40.246h-13.571V152.232z"/>
		<path fill="#004B7A" d="M1227.928,149.113c0-7.799-0.156-14.195-0.624-20.434h12.168l0.779,12.479h0.313
			c3.743-7.175,12.479-14.195,24.957-14.195c10.452,0,26.675,6.24,26.675,32.134v45.081h-13.728v-43.521
			c0-12.167-4.523-22.307-17.47-22.307c-9.048,0-16.067,6.396-18.407,14.039c-0.624,1.716-0.937,4.056-0.937,6.396v45.393h-13.727
			V149.113z"/>
		<path fill="#004B7A" d="M1322.145,168.923c0.312,18.563,12.167,26.207,25.895,26.207c9.827,0,15.755-1.716,20.902-3.9l2.34,9.827
			c-4.836,2.184-13.104,4.68-25.114,4.68c-23.242,0-37.125-15.287-37.125-38.061c0-22.775,13.414-40.713,35.409-40.713
			c24.646,0,31.198,21.683,31.198,35.566c0,2.808-0.313,4.991-0.469,6.395H1322.145z M1362.39,159.096
			c0.156-8.735-3.588-22.307-19.03-22.307c-13.883,0-19.967,12.792-21.06,22.307H1362.39z"/>
		<path fill="#004B7A" d="M1392.649,93.425h13.727v47.109h0.313c2.184-3.9,5.615-7.332,9.827-9.672
			c4.056-2.339,8.892-3.899,14.039-3.899c10.14,0,26.362,6.24,26.362,32.29v44.925h-13.727v-43.365
			c0-12.167-4.523-22.462-17.471-22.462c-8.892,0-15.91,6.24-18.406,13.727c-0.781,1.872-0.938,3.899-0.938,6.552v45.549h-13.727
			V93.425z"/>
		<path fill="#004B7A" d="M1479.223,149.113c0-7.799-0.155-14.195-0.623-20.434h12.011l0.624,12.167h0.468
			c4.212-7.175,11.23-13.883,23.711-13.883c10.295,0,18.094,6.24,21.369,15.131h0.313c2.34-4.212,5.305-7.487,8.424-9.827
			c4.523-3.432,9.516-5.304,16.691-5.304c9.982,0,24.801,6.552,24.801,32.758v44.457h-13.414v-42.741
			c0-14.507-5.304-23.242-16.379-23.242c-7.8,0-13.883,5.771-16.223,12.479c-0.624,1.872-1.092,4.368-1.092,6.864v46.641h-13.415
			V158.94c0-12.011-5.304-20.746-15.755-20.746c-8.58,0-14.819,6.863-17.003,13.727c-0.78,2.028-1.092,4.368-1.092,6.708v45.549
			h-13.416V149.113z"/>
		<path fill="#004B7A" d="M1672.494,183.587c0,7.799,0.156,14.663,0.623,20.59h-12.167l-0.779-12.324h-0.313
			c-3.587,6.084-11.543,14.039-24.959,14.039c-11.854,0-26.049-6.551-26.049-33.069v-44.145h13.727v41.805
			c0,14.351,4.367,24.022,16.847,24.022c9.204,0,15.599-6.396,18.095-12.479c0.78-2.028,1.249-4.523,1.249-7.02v-46.328h13.727
			V183.587z"/>
		<path fill="#004B7A" d="M1695.267,149.113c0-7.799-0.156-14.195-0.623-20.434h12.168l0.779,12.479h0.312
			c3.743-7.175,12.479-14.195,24.958-14.195c10.451,0,26.674,6.24,26.674,32.134v45.081h-13.727v-43.521
			c0-12.167-4.523-22.307-17.471-22.307c-9.048,0-16.066,6.396-18.406,14.039c-0.625,1.716-0.937,4.056-0.937,6.396v45.393h-13.728
			V149.113z"/>
		<path fill="#004B7A" d="M1846.889,128.679c-0.313,5.459-0.624,11.543-0.624,20.746v43.833c0,17.315-3.432,27.922-10.764,34.474
			c-7.332,6.864-17.939,9.047-27.454,9.047c-9.047,0-19.03-2.184-25.114-6.239l3.432-10.452c4.992,3.12,12.791,5.928,22.15,5.928
			c14.039,0,24.335-7.332,24.335-26.362v-8.424h-0.313c-4.212,7.02-12.323,12.635-24.022,12.635
			c-18.719,0-32.134-15.911-32.134-36.813c0-25.582,16.691-40.089,34.006-40.089c13.103,0,20.278,6.863,23.554,13.103h0.313
			l0.624-11.387H1846.889z M1832.693,158.472c0-2.34-0.156-4.368-0.78-6.24c-2.496-7.955-9.203-14.506-19.187-14.506
			c-13.104,0-22.463,11.075-22.463,28.545c0,14.819,7.487,27.143,22.307,27.143c8.424,0,16.067-5.304,19.03-14.039
			c0.78-2.34,1.093-4.992,1.093-7.332V158.472z"/>
		<path fill="#004B7A" d="M647.5,391.364l-26.674-105.137h14.351l12.479,53.192c3.12,13.103,5.928,26.206,7.8,36.346h0.312
			c1.716-10.451,4.992-22.931,8.579-36.502l14.039-53.036h14.195l12.791,53.349c2.964,12.479,5.771,24.957,7.332,36.033h0.312
			c2.184-11.543,5.147-23.242,8.424-36.346l13.883-53.036h13.883L719.41,391.364h-14.195l-13.259-54.753
			c-3.275-13.414-5.459-23.71-6.863-34.316h-0.312c-1.873,10.45-4.212,20.746-8.112,34.316l-14.975,54.753H647.5z"/>
		<path fill="#004B7A" d="M774.631,294.65c0.156,4.68-3.275,8.424-8.735,8.424c-4.835,0-8.268-3.744-8.268-8.424
			c0-4.835,3.588-8.578,8.58-8.578C771.355,286.072,774.631,289.815,774.631,294.65z M759.344,391.364v-75.499h13.727v75.499
			H759.344z"/>
		<path fill="#004B7A" d="M795.845,280.611h13.727v110.753h-13.727V280.611z"/>
		<path fill="#004B7A" d="M832.657,280.611h13.727v47.109h0.312c2.184-3.899,5.615-7.331,9.827-9.671
			c4.056-2.34,8.892-3.899,14.039-3.899c10.139,0,26.362,6.239,26.362,32.289v44.925h-13.727V348
			c0-12.168-4.524-22.463-17.471-22.463c-8.892,0-15.911,6.239-18.407,13.727c-0.78,1.872-0.936,3.899-0.936,6.552v45.549h-13.727
			V280.611z"/>
		<path fill="#004B7A" d="M926.873,356.111c0.312,18.562,12.167,26.206,25.894,26.206c9.828,0,15.755-1.717,20.903-3.9l2.339,9.828
			c-4.835,2.183-13.103,4.679-25.113,4.679c-23.242,0-37.126-15.286-37.126-38.062c0-22.773,13.415-40.712,35.41-40.712
			c24.646,0,31.197,21.682,31.197,35.564c0,2.808-0.313,4.991-0.468,6.396H926.873z M967.118,346.284
			c0.156-8.736-3.588-22.307-19.031-22.307c-13.883,0-19.967,12.79-21.058,22.307H967.118z"/>
		<path fill="#004B7A" d="M997.378,280.611h13.728v110.753h-13.728V280.611z"/>
		<path fill="#004B7A" d="M1034.191,336.301c0-7.801-0.156-14.195-0.624-20.436h12.012l0.623,12.168h0.469
			c4.211-7.177,11.23-13.883,23.71-13.883c10.295,0,18.095,6.239,21.37,15.13h0.313c2.34-4.212,5.304-7.487,8.423-9.827
			c4.524-3.432,9.516-5.303,16.691-5.303c9.983,0,24.802,6.551,24.802,32.757v44.457h-13.415v-42.741
			c0-14.507-5.303-23.242-16.379-23.242c-7.8,0-13.883,5.771-16.223,12.479c-0.624,1.872-1.092,4.368-1.092,6.862v46.642h-13.415
			v-45.236c0-12.012-5.304-20.747-15.754-20.747c-8.58,0-14.82,6.864-17.004,13.727c-0.78,2.028-1.092,4.368-1.092,6.708v45.549
			h-13.415V336.301z"/>
		<path fill="#004B7A" d="M1219.348,286.228h13.571v70.351c0,27.922-13.727,36.502-31.822,36.502c-4.99,0-11.074-1.092-14.506-2.496
			l2.027-11.075c2.808,1.092,6.863,2.028,11.388,2.028c12.167,0,19.342-5.459,19.342-26.051V286.228z"/>
		<path fill="#004B7A" d="M1296.874,391.364l-1.092-9.515h-0.468c-4.212,5.927-12.323,11.23-23.086,11.23
			c-15.287,0-23.087-10.763-23.087-21.683c0-18.251,16.223-28.234,45.394-28.078v-1.56c0-6.239-1.717-17.471-17.159-17.471
			c-7.02,0-14.352,2.185-19.654,5.615l-3.119-9.048c6.238-4.056,15.286-6.706,24.801-6.706c23.088,0,28.703,15.754,28.703,30.885
			v28.234c0,6.552,0.312,12.947,1.247,18.095H1296.874z M1294.847,352.835c-14.975-0.313-31.979,2.34-31.979,17.003
			c0,8.891,5.928,13.103,12.948,13.103c9.827,0,16.066-6.239,18.251-12.634c0.468-1.405,0.779-2.965,0.779-4.368V352.835z"/>
		<path fill="#004B7A" d="M1330.255,336.301c0-7.801-0.156-14.195-0.623-20.436h12.167l0.779,12.479h0.312
			c3.744-7.176,12.48-14.194,24.958-14.194c10.452,0,26.675,6.239,26.675,32.134v45.08h-13.727v-43.521
			c0-12.168-4.524-22.307-17.471-22.307c-9.048,0-16.067,6.396-18.407,14.039c-0.624,1.716-0.937,4.056-0.937,6.396v45.393h-13.727
			V336.301z"/>
		<path fill="#004B7A" d="M1432.115,294.65c0.156,4.68-3.276,8.424-8.735,8.424c-4.836,0-8.268-3.744-8.268-8.424
			c0-4.835,3.588-8.578,8.58-8.578C1428.839,286.072,1432.115,289.815,1432.115,294.65z M1416.828,391.364v-75.499h13.727v75.499
			H1416.828z"/>
		<path fill="#004B7A" d="M1466.9,350.494h0.312c1.871-2.65,4.523-5.927,6.708-8.578l22.15-26.051h16.535l-29.171,31.042
			l33.227,44.457h-16.691l-26.05-36.189l-7.02,7.799v28.391h-13.571V280.611h13.571V350.494z"/>
	</g>
</g>
</svg>
