<?xml version="1.0" encoding="utf-8"?>
<!-- Generator: Adobe Illustrator 16.0.3, SVG Export Plug-In . SVG Version: 6.00 Build 0)  -->
<!DOCTYPE svg PUBLIC "-//W3C//DTD SVG 1.1//EN" "http://www.w3.org/Graphics/SVG/1.1/DTD/svg11.dtd">
<svg version="1.1" id="Gruppe_1_1_" xmlns="http://www.w3.org/2000/svg" xmlns:xlink="http://www.w3.org/1999/xlink" x="0px"
	 y="0px" width="1461.354px" height="786.673px" viewBox="142.846 151.351 1461.354 786.673"
	 enable-background="new 142.846 151.351 1461.354 786.673" xml:space="preserve">
<g id="Striche_1_">
	<g id="Abgerundetes_Rechteck_6">
		<g>
			<path fill="#FFFFFF" d="M1544.563,166.76h-695.78c-32.938,0-59.637,26.706-59.637,59.65c0,32.951,26.7,59.648,59.637,59.648
				h695.78c32.938,0,59.637-26.697,59.637-59.648C1604.199,193.466,1577.5,166.76,1544.563,166.76z"/>
		</g>
	</g>
	<g id="Abgerundetes_Rechteck_6_Kopie">
		<g>
			<path fill="#FFFFFF" d="M1544.563,485.788h-695.78c-32.938,0-59.637,26.709-59.637,59.661c0,32.94,26.7,59.649,59.637,59.649
				h695.78c32.938,0,59.637-26.709,59.637-59.649C1604.199,512.497,1577.5,485.788,1544.563,485.788z"/>
		</g>
	</g>
	<g id="Abgerundetes_Rechteck_6_Kopie_2">
		<g>
			<path fill="#FFFFFF" d="M1544.563,804.298h-695.78c-32.938,0-59.637,26.709-59.637,59.661c0,32.939,26.7,59.648,59.637,59.648
				h695.78c32.938,0,59.637-26.709,59.637-59.648C1604.199,831.007,1577.5,804.298,1544.563,804.298z"/>
		</g>
	</g>
</g>
<g id="Person_1_">
	<g id="Ellipse_1">
		<g>
			<path fill="#FFFFFF" d="M409.665,151.351c-115.507,0-209.146,93.372-209.146,208.563c0,115.181,93.64,208.553,209.146,208.553
				c115.508,0,209.147-93.372,209.147-208.553C618.812,244.723,525.173,151.351,409.665,151.351z"/>
		</g>
	</g>
	<g id="Abgerundetes_Rechteck_7">
		<g>
			<path fill="#FFFFFF" d="M605.244,572.678h-391.26c-39.292,0-71.138,32.723-71.138,73.063v219.211
				c0,40.354,31.846,73.072,71.138,73.072h391.26c39.285,0,71.138-32.718,71.138-73.072V645.74
				C676.382,605.4,644.529,572.678,605.244,572.678z"/>
		</g>
	</g>
</g>
</svg>
