<?xml version="1.0" encoding="utf-8"?>
<!-- Generator: Adobe Illustrator 16.0.3, SVG Export Plug-In . SVG Version: 6.00 Build 0)  -->
<!DOCTYPE svg PUBLIC "-//W3C//DTD SVG 1.1//EN" "http://www.w3.org/Graphics/SVG/1.1/DTD/svg11.dtd">
<svg version="1.1" id="Ebene_1" xmlns="http://www.w3.org/2000/svg" xmlns:xlink="http://www.w3.org/1999/xlink" x="0px" y="0px"
	 width="1300.65px" height="828.831px" viewBox="339.48 125.43 1300.65 828.831"
	 enable-background="new 339.48 125.43 1300.65 828.831" xml:space="preserve">
<g id="Ebene_5" display="none">
	<rect x="-12.198" y="-24" display="inline" stroke="#000000" stroke-miterlimit="10" width="2006" height="1122"/>
</g>
<g id="Person3">
	<path fill="#FFFFFF" d="M728.83,397.48c0,26.34,4.211,51.69,11.99,75.43c-36.479,35.561-86.33,57.46-141.3,57.46
		c-111.82,0-202.47-90.649-202.47-202.47c0-111.819,90.649-202.47,202.47-202.47c81.86,0,152.37,48.58,184.28,118.48
		C749.461,285.69,728.83,339.17,728.83,397.48z"/>
	<path fill="#FFFFFF" d="M794.31,563.01h-26.72c-59.4,0-107.561,48.149-107.561,107.561V881.47c0,1.71,0.04,3.41,0.12,5.101H429.48
		c-49.71,0-90-40.29-90-90V620.09c0-49.71,40.29-90,90-90h338.89C776.07,541.81,784.75,552.829,794.31,563.01z"/>
</g>
<g id="Person2">
	<path fill="#FFFFFF" d="M1582.56,327.9c0,111.82-90.649,202.47-202.47,202.47c-54.21,0-103.45-21.31-139.79-56.01
		c8.09-24.149,12.47-50,12.47-76.88c0-59.03-21.13-113.12-56.25-155.12c32.24-69.069,102.32-116.93,183.57-116.93
		C1491.91,125.43,1582.56,216.08,1582.56,327.9z"/>
	<path fill="#FFFFFF" d="M1640.131,620.09V796.57c0,49.71-40.291,90-90,90H1321.45c0.08-1.689,0.12-3.391,0.12-5.101V670.57
		c0-59.41-48.15-107.561-107.561-107.561h-26.721c9.561-10.181,18.24-21.2,25.931-32.92h336.909
		C1599.84,530.09,1640.131,570.38,1640.131,620.09z"/>
</g>
<g id="Person">
	<circle fill="#FFFFFF" cx="990.802" cy="397.48" r="202.467"/>
	<path fill="#FFFFFF" d="M1250.843,864.261c0,49.706-40.293,90-90,90H820.763c-49.706,0-90-40.294-90-90v-176.48
		c0-49.706,40.294-90,90-90h340.079c49.707,0,90,40.294,90,90V864.261z"/>
</g>
</svg>
