<?xml version="1.0" encoding="utf-8"?>
<!-- Generator: Adobe Illustrator 16.0.0, SVG Export Plug-In . SVG Version: 6.00 Build 0)  -->
<!DOCTYPE svg PUBLIC "-//W3C//DTD SVG 1.1//EN" "http://www.w3.org/Graphics/SVG/1.1/DTD/svg11.dtd">
<svg version="1.1" id="Layer_1" xmlns="http://www.w3.org/2000/svg" xmlns:xlink="http://www.w3.org/1999/xlink" x="0px" y="0px"
	 width="1814.388px" height="490.785px" viewBox="53.706 273.384 1814.388 490.785"
	 enable-background="new 53.706 273.384 1814.388 490.785" xml:space="preserve">
<g id="Logo">
	<g id="Gebäude2">
		<polygon fill="#004B7A" points="194.101,495.184 282.738,525.297 282.738,495.547 194.101,465.438 		"/>
		<polygon fill="#004B7A" points="194.101,535.654 282.738,565.768 282.738,536.018 194.101,505.906 		"/>
		<polygon fill="#004B7A" points="194.101,616.595 282.738,646.707 282.738,616.959 194.101,586.846 		"/>
		<polygon fill="#004B7A" points="194.101,697.533 282.738,727.646 282.738,697.898 194.101,667.786 		"/>
		<polygon fill="#004B7A" points="194.101,576.124 282.738,606.236 282.738,576.485 194.101,546.377 		"/>
		<polygon fill="#004B7A" points="194.101,657.063 282.738,687.176 282.738,657.426 194.101,627.313 		"/>
		<polygon fill="#004B7A" points="194.101,697.301 203.301,700.37 203.301,468.541 194.101,465.468 		"/>
		<polygon fill="#004B7A" points="136.662,526.452 183.448,497.726 183.448,508.806 136.662,537.532 		"/>
		<polygon fill="#004B7A" points="136.662,567.021 183.448,538.297 183.448,549.377 136.662,578.101 		"/>
		<polygon fill="#004B7A" points="136.662,607.594 183.448,578.869 183.448,589.947 136.662,618.672 		"/>
		<polygon fill="#004B7A" points="136.662,648.166 183.448,619.438 183.448,630.518 136.662,659.245 		"/>
		<polygon fill="#004B7A" points="136.662,688.737 183.448,660.013 183.448,671.092 136.662,699.814 		"/>
		<polygon fill="#004B7A" points="183.038,471.118 192.239,465.438 192.239,697.266 183.038,702.948 		"/>
	</g>
	<g id="Gebäude1">
		<polygon fill="#1379BE" points="373.289,392.307 497.026,434.342 497.026,392.814 373.289,350.779 		"/>
		<polygon fill="#1379BE" points="373.289,448.803 497.026,490.838 497.026,449.31 373.289,407.275 		"/>
		<polygon fill="#1379BE" points="373.289,561.792 497.026,603.831 497.026,562.301 373.289,520.266 		"/>
		<polygon fill="#1379BE" points="373.289,505.297 497.026,547.335 497.026,505.804 373.289,463.77 		"/>
		<polygon fill="#1379BE" points="373.289,618.287 497.026,660.322 497.026,618.795 373.289,576.759 		"/>
		<polygon fill="#1379BE" points="373.289,741.526 497.026,712.006 497.026,675.293 373.289,633.256 		"/>
		<polygon fill="#1379BE" points="373.289,674.459 386.132,678.744 386.132,355.11 373.289,350.824 		"/>
		<polygon fill="#1379BE" points="293.106,435.956 358.418,395.856 358.418,411.322 293.106,451.422 		"/>
		<polygon fill="#1379BE" points="293.106,492.593 358.418,452.493 358.418,467.96 293.106,508.059 		"/>
		<polygon fill="#1379BE" points="293.106,549.229 358.418,509.129 358.418,524.596 293.106,564.695 		"/>
		<polygon fill="#1379BE" points="293.106,605.866 358.418,565.768 358.418,581.233 293.106,621.332 		"/>
		<polygon fill="#1379BE" points="293.106,662.504 358.418,622.405 358.418,637.868 293.106,677.968 		"/>
		<polygon fill="#1379BE" points="293.106,716.881 358.418,676.781 358.418,692.248 293.106,732.347 		"/>
		<polygon fill="#1379BE" points="357.845,358.71 370.689,350.779 370.689,734.164 357.845,742.096 		"/>
	</g>
	<g id="Sichel">
		<path fill="#004B7B" d="M290.916,301.824c43.247-16.334,86.771-25.624,128.388-28.44c-21.646,4.713-43.534,11.154-65.361,19.398
			C188.452,355.29,88.955,497.714,131.705,610.896c42.752,113.183,211.563,154.262,377.052,91.753
			c15.438-5.831,30.301-12.361,44.53-19.494c-29.303,20.333-62.497,37.918-98.828,51.645
			c-170.236,64.299-344.852,19.504-390.013-100.06C19.288,515.178,120.679,366.125,290.916,301.824z"/>
	</g>
</g>
<g id="Text">
	<g>
		<path fill="#004B7A" d="M672.955,372.06c5.823-1.226,15.018-2.146,24.366-2.146c13.333,0,21.914,2.299,28.35,7.509
			c5.364,3.984,8.582,10.114,8.582,18.236c0,9.961-6.59,18.696-17.47,22.68v0.306c9.808,2.452,21.301,10.574,21.301,25.898
			c0,8.888-3.525,15.631-8.735,20.688c-7.202,6.589-18.849,9.653-35.705,9.653c-9.195,0-16.244-0.613-20.688-1.226V372.06
			L672.955,372.06z M686.287,414.355h12.105c14.1,0,22.374-7.356,22.374-17.317c0-12.106-9.193-16.856-22.68-16.856
			c-6.13,0-9.655,0.459-11.8,0.919V414.355L686.287,414.355z M686.287,463.853c2.604,0.46,6.436,0.613,11.187,0.613
			c13.792,0,26.512-5.057,26.512-20.075c0-14.098-12.106-19.922-26.665-19.922h-11.033V463.853z"/>
		<path fill="#004B7A" d="M796.622,473.967l-1.073-9.348h-0.46c-4.138,5.823-12.105,11.033-22.68,11.033
			c-15.019,0-22.68-10.574-22.68-21.302c0-17.93,15.937-27.736,44.594-27.584v-1.531c0-6.13-1.687-17.164-16.857-17.164
			c-6.896,0-14.098,2.146-19.309,5.517l-3.065-8.888c6.13-3.984,15.019-6.59,24.366-6.59c22.68,0,28.197,15.478,28.197,30.342
			v27.737c0,6.437,0.307,12.719,1.226,17.775h-12.259V473.967z M794.629,436.116c-14.711-0.308-31.415,2.298-31.415,16.704
			c0,8.734,5.823,12.872,12.719,12.872c9.654,0,15.784-6.129,17.931-12.413c0.459-1.379,0.766-2.912,0.766-4.291V436.116z"/>
		<path fill="#004B7A" d="M891.479,453.739c0,7.662,0.152,14.404,0.612,20.228h-11.953l-0.766-12.105h-0.308
			c-3.523,5.977-11.34,13.792-24.519,13.792c-11.646,0-25.592-6.437-25.592-32.488v-43.368h13.485v41.069
			c0,14.098,4.291,23.6,16.55,23.6c9.042,0,15.325-6.283,17.775-12.26c0.768-1.992,1.227-4.444,1.227-6.896v-45.513h13.485v53.942
			H891.479z"/>
		<path fill="#004B7A" d="M975.915,453.739c0,7.662,0.153,14.404,0.613,20.228h-11.953l-0.768-12.105h-0.307
			c-3.524,5.977-11.339,13.792-24.52,13.792c-11.646,0-25.592-6.437-25.592-32.488v-43.368h13.485v41.069
			c0,14.098,4.291,23.6,16.55,23.6c9.042,0,15.325-6.283,17.777-12.26c0.766-1.992,1.226-4.444,1.226-6.896v-45.513h13.485v53.942
			H975.915z"/>
		<path fill="#004B7A" d="M998.288,419.872c0-7.662-0.153-13.945-0.612-20.075h11.953l0.767,12.259h0.307
			c3.678-7.049,12.26-13.944,24.519-13.944c10.269,0,26.205,6.13,26.205,31.567v44.288h-13.484v-42.755
			c0-11.953-4.444-21.914-17.163-21.914c-8.889,0-15.784,6.283-18.083,13.792c-0.613,1.687-0.92,3.984-0.92,6.283v44.594H998.29
			v-54.095H998.288z"/>
		<path fill="#004B7A" d="M1098.969,378.496v21.301h19.31v10.268h-19.31v39.996c0,9.195,2.605,14.405,10.114,14.405
			c3.524,0,6.13-0.46,7.814-0.919l0.613,10.114c-2.604,1.073-6.743,1.839-11.953,1.839c-6.282,0-11.341-1.992-14.559-5.67
			c-3.831-3.984-5.21-10.574-5.21-19.309v-40.457h-11.493v-10.268h11.493v-17.775L1098.969,378.496z"/>
		<path fill="#004B7A" d="M1140.037,439.334c0.307,18.236,11.953,25.745,25.438,25.745c9.654,0,15.479-1.687,20.534-3.831
			l2.299,9.654c-4.751,2.146-12.873,4.597-24.673,4.597c-22.833,0-36.472-15.018-36.472-37.391
			c0-22.374,13.179-39.997,34.786-39.997c24.213,0,30.648,21.301,30.648,34.939c0,2.758-0.307,4.904-0.46,6.283H1140.037z
			 M1179.574,429.68c0.152-8.582-3.524-21.914-18.695-21.914c-13.639,0-19.615,12.566-20.688,21.914H1179.574z"/>
		<path fill="#004B7A" d="M1209.303,422.938c0-8.735-0.152-16.244-0.612-23.141h11.801l0.459,14.559h0.613
			c3.37-9.962,11.492-16.244,20.534-16.244c1.532,0,2.604,0.152,3.831,0.46v12.719c-1.38-0.307-2.759-0.46-4.598-0.46
			c-9.501,0-16.244,7.203-18.083,17.317c-0.307,1.839-0.613,3.983-0.613,6.282v39.537h-13.332V422.938z"/>
		<path fill="#004B7A" d="M1260.025,419.872c0-7.662-0.153-13.945-0.612-20.075h11.953l0.766,12.259h0.307
			c3.679-7.049,12.261-13.944,24.52-13.944c10.268,0,26.205,6.13,26.205,31.567v44.288h-13.485v-42.755
			c0-11.953-4.443-21.914-17.163-21.914c-8.889,0-15.783,6.283-18.083,13.792c-0.612,1.687-0.92,3.984-0.92,6.283v44.594h-13.484
			v-54.095H1260.025z"/>
		<path fill="#004B7A" d="M1352.584,439.334c0.307,18.236,11.953,25.745,25.438,25.745c9.654,0,15.479-1.687,20.534-3.831l2.3,9.654
			c-4.752,2.146-12.873,4.597-24.674,4.597c-22.833,0-36.472-15.018-36.472-37.391c0-22.374,13.179-39.997,34.786-39.997
			c24.213,0,30.648,21.301,30.648,34.939c0,2.758-0.307,4.904-0.459,6.283H1352.584z M1392.121,429.68
			c0.153-8.582-3.524-21.914-18.695-21.914c-13.639,0-19.614,12.566-20.688,21.914H1392.121z"/>
		<path fill="#004B7A" d="M1421.849,365.164h13.485v46.28h0.307c2.146-3.831,5.518-7.203,9.654-9.501
			c3.984-2.299,8.735-3.831,13.792-3.831c9.961,0,25.898,6.13,25.898,31.722v44.134H1471.5v-42.602
			c0-11.953-4.444-22.067-17.163-22.067c-8.734,0-15.631,6.13-18.083,13.485c-0.767,1.839-0.92,3.831-0.92,6.437v44.747h-13.485
			V365.164z"/>
		<path fill="#004B7A" d="M1506.897,419.872c0-7.662-0.152-13.945-0.611-20.075h11.8l0.612,11.953h0.46
			c4.138-7.049,11.032-13.639,23.293-13.639c10.114,0,17.775,6.13,20.994,14.864h0.307c2.299-4.138,5.211-7.354,8.275-9.653
			c4.443-3.372,9.348-5.21,16.396-5.21c9.808,0,24.365,6.437,24.365,32.182v43.674h-13.179v-41.989
			c0-14.252-5.21-22.832-16.092-22.832c-7.661,0-13.639,5.67-15.938,12.26c-0.612,1.839-1.072,4.291-1.072,6.743v45.819h-13.179
			v-44.44c0-11.8-5.211-20.381-15.478-20.381c-8.43,0-14.56,6.742-16.704,13.484c-0.768,1.992-1.072,4.291-1.072,6.59v44.747
			h-13.181v-54.097H1506.897z"/>
		<path fill="#004B7A" d="M1696.769,453.739c0,7.662,0.153,14.404,0.612,20.228h-11.953l-0.766-12.105h-0.307
			c-3.524,5.977-11.341,13.792-24.521,13.792c-11.646,0-25.591-6.437-25.591-32.488v-43.368h13.485v41.069
			c0,14.098,4.29,23.6,16.55,23.6c9.042,0,15.324-6.283,17.776-12.26c0.767-1.992,1.227-4.444,1.227-6.896v-45.513h13.485
			L1696.769,453.739L1696.769,453.739z"/>
		<path fill="#004B7A" d="M1719.141,419.872c0-7.662-0.152-13.945-0.611-20.075h11.952l0.767,12.259h0.307
			c3.679-7.049,12.261-13.944,24.52-13.944c10.268,0,26.205,6.13,26.205,31.567v44.288h-13.485v-42.755
			c0-11.953-4.444-21.914-17.163-21.914c-8.889,0-15.784,6.283-18.083,13.792c-0.613,1.687-0.92,3.984-0.92,6.283v44.594h-13.485
			v-54.095H1719.141z"/>
		<path fill="#004B7A" d="M1868.094,399.797c-0.307,5.363-0.612,11.34-0.612,20.381v43.063c0,17.01-3.371,27.431-10.574,33.867
			c-7.202,6.742-17.623,8.888-26.971,8.888c-8.889,0-18.695-2.146-24.673-6.129l3.371-10.269c4.904,3.065,12.566,5.823,21.761,5.823
			c13.793,0,23.906-7.203,23.906-25.897v-8.275h-0.307c-4.139,6.896-12.105,12.413-23.6,12.413
			c-18.391,0-31.568-15.631-31.568-36.166c0-25.132,16.396-39.384,33.406-39.384c12.873,0,19.923,6.742,23.141,12.873h0.307
			l0.613-11.188H1868.094L1868.094,399.797z M1854.147,429.067c0-2.3-0.152-4.291-0.767-6.131
			c-2.452-7.814-9.041-14.251-18.849-14.251c-12.873,0-22.067,10.881-22.067,28.043c0,14.559,7.355,26.665,21.914,26.665
			c8.274,0,15.784-5.21,18.694-13.792c0.768-2.299,1.074-4.903,1.074-7.202V429.067L1854.147,429.067z"/>
		<path fill="#004B7A" d="M689.812,657.86l-26.204-103.286h14.098l12.26,52.256c3.065,12.872,5.823,25.745,7.662,35.706h0.307
			c1.687-10.269,4.904-22.527,8.429-35.859l13.792-52.103h13.944l12.566,52.408c2.912,12.261,5.67,24.52,7.203,35.399h0.306
			c2.146-11.34,5.058-22.833,8.275-35.706l13.639-52.103h13.639l-29.27,103.286h-13.945l-13.025-53.789
			c-3.219-13.18-5.363-23.293-6.743-33.714h-0.307c-1.839,10.268-4.138,20.382-7.969,33.714l-14.711,53.789L689.812,657.86
			L689.812,657.86z"/>
		<path fill="#004B7A" d="M814.706,562.849c0.153,4.599-3.218,8.275-8.582,8.275c-4.75,0-8.122-3.678-8.122-8.275
			c0-4.75,3.525-8.428,8.429-8.428C811.488,554.421,814.706,558.099,814.706,562.849z M799.688,657.86v-74.17h13.484v74.17H799.688z
			"/>
		<path fill="#004B7A" d="M835.546,549.057h13.485V657.86h-13.485V549.057z"/>
		<path fill="#004B7A" d="M871.71,549.057h13.485v46.28h0.307c2.146-3.831,5.517-7.202,9.654-9.501
			c3.983-2.299,8.734-3.831,13.792-3.831c9.96,0,25.897,6.13,25.897,31.722v44.135h-13.484v-42.603
			c0-11.953-4.444-22.066-17.164-22.066c-8.735,0-15.631,6.13-18.083,13.484c-0.767,1.839-0.919,3.831-0.919,6.438v44.747H871.71
			V549.057z"/>
		<path fill="#004B7A" d="M964.269,623.229c0.308,18.234,11.953,25.744,25.438,25.744c9.654,0,15.478-1.687,20.535-3.832
			l2.298,9.655c-4.75,2.146-12.872,4.597-24.672,4.597c-22.833,0-36.473-15.018-36.473-37.392c0-22.373,13.18-39.996,34.787-39.996
			c24.212,0,30.648,21.302,30.648,34.939c0,2.758-0.307,4.903-0.46,6.283L964.269,623.229L964.269,623.229z M1003.806,613.573
			c0.153-8.582-3.523-21.914-18.695-21.914c-13.64,0-19.615,12.564-20.688,21.914H1003.806z"/>
		<path fill="#004B7A" d="M1033.533,549.057h13.484V657.86h-13.484V549.057z"/>
		<path fill="#004B7A" d="M1069.698,603.766c0-7.663-0.153-13.944-0.612-20.074h11.8l0.612,11.952h0.46
			c4.138-7.05,11.033-13.639,23.293-13.639c10.114,0,17.776,6.13,20.994,14.864h0.307c2.299-4.138,5.211-7.355,8.275-9.654
			c4.443-3.371,9.348-5.21,16.396-5.21c9.809,0,24.365,6.437,24.365,32.181v43.676h-13.179v-41.989
			c0-14.251-5.21-22.833-16.091-22.833c-7.662,0-13.64,5.67-15.938,12.26c-0.612,1.839-1.071,4.291-1.071,6.742v45.82h-13.18v-44.44
			c0-11.8-5.211-20.382-15.478-20.382c-8.429,0-14.56,6.743-16.704,13.485c-0.768,1.991-1.072,4.291-1.072,6.59v44.747h-13.18
			v-54.096H1069.698z"/>
		<path fill="#004B7A" d="M1251.597,554.574h13.332v69.111c0,27.432-13.484,35.859-31.262,35.859c-4.902,0-10.88-1.072-14.251-2.452
			l1.992-10.88c2.758,1.072,6.742,1.992,11.187,1.992c11.953,0,19.002-5.363,19.002-25.592V554.574z"/>
		<path fill="#004B7A" d="M1327.759,657.86l-1.072-9.349h-0.459c-4.139,5.823-12.106,11.033-22.681,11.033
			c-15.019,0-22.681-10.573-22.681-21.301c0-17.93,15.938-27.737,44.595-27.584v-1.532c0-6.13-1.687-17.163-16.857-17.163
			c-6.896,0-14.099,2.146-19.309,5.518l-3.063-8.89c6.129-3.983,15.018-6.589,24.364-6.589c22.682,0,28.197,15.479,28.197,30.342
			v27.737c0,6.437,0.307,12.72,1.226,17.776L1327.759,657.86L1327.759,657.86z M1325.767,620.009
			c-14.711-0.307-31.415,2.299-31.415,16.704c0,8.734,5.823,12.872,12.721,12.872c9.653,0,15.784-6.13,17.93-12.412
			c0.46-1.38,0.766-2.912,0.766-4.291L1325.767,620.009L1325.767,620.009z"/>
		<path fill="#004B7A" d="M1360.552,603.766c0-7.663-0.152-13.944-0.611-20.074h11.952l0.767,12.26h0.307
			c3.678-7.05,12.26-13.945,24.52-13.945c10.268,0,26.205,6.13,26.205,31.568v44.287h-13.485v-42.756
			c0-11.952-4.444-21.913-17.163-21.913c-8.889,0-15.784,6.282-18.083,13.792c-0.613,1.686-0.92,3.983-0.92,6.282v44.595h-13.485
			v-54.096H1360.552z"/>
		<path fill="#004B7A" d="M1460.62,562.849c0.152,4.599-3.219,8.275-8.582,8.275c-4.751,0-8.122-3.678-8.122-8.275
			c0-4.75,3.524-8.428,8.429-8.428C1457.401,554.421,1460.62,558.099,1460.62,562.849z M1445.603,657.86v-74.17h13.484v74.17
			H1445.603z"/>
		<path fill="#004B7A" d="M1494.793,617.71h0.306c1.84-2.604,4.444-5.823,6.59-8.428l21.762-25.592h16.244l-28.657,30.495
			l32.642,43.675h-16.396l-25.592-35.554l-6.896,7.662v27.892h-13.333V549.057h13.333L1494.793,617.71L1494.793,617.71z"/>
	</g>
</g>
</svg>
